<mxfile host="app.diagrams.net" modified="2021-11-15T09:27:52.292Z" agent="5.0 (Windows NT 10.0; Win64; x64) AppleWebKit/537.36 (KHTML, like Gecko) Chrome/95.0.4638.69 Safari/537.36" etag="jKssZtenZkSOp5XnWq3i" version="15.7.3" type="github">
  <diagram id="Y-QiJntrptzw3iK1_TFF" name="Page-1">
    <mxGraphModel dx="796" dy="536" grid="1" gridSize="10" guides="1" tooltips="1" connect="1" arrows="1" fold="1" page="1" pageScale="1" pageWidth="850" pageHeight="1100" math="0" shadow="0">
      <root>
        <mxCell id="0" />
        <mxCell id="1" parent="0" />
        <mxCell id="M1jqkNvkKbYQRdfH7JLm-11" style="edgeStyle=orthogonalEdgeStyle;rounded=0;orthogonalLoop=1;jettySize=auto;html=1;exitX=0;exitY=1;exitDx=0;exitDy=0;fontSize=22;" edge="1" parent="1" source="M1jqkNvkKbYQRdfH7JLm-1" target="M1jqkNvkKbYQRdfH7JLm-2">
          <mxGeometry relative="1" as="geometry" />
        </mxCell>
        <mxCell id="M1jqkNvkKbYQRdfH7JLm-12" style="edgeStyle=orthogonalEdgeStyle;rounded=0;orthogonalLoop=1;jettySize=auto;html=1;exitX=1;exitY=1;exitDx=0;exitDy=0;entryX=0.288;entryY=0;entryDx=0;entryDy=0;entryPerimeter=0;fontSize=22;" edge="1" parent="1" source="M1jqkNvkKbYQRdfH7JLm-1" target="M1jqkNvkKbYQRdfH7JLm-4">
          <mxGeometry relative="1" as="geometry" />
        </mxCell>
        <mxCell id="M1jqkNvkKbYQRdfH7JLm-1" value="&lt;font style=&quot;font-size: 22px&quot;&gt;5&lt;/font&gt;" style="ellipse;whiteSpace=wrap;html=1;aspect=fixed;" vertex="1" parent="1">
          <mxGeometry x="370" y="40" width="80" height="80" as="geometry" />
        </mxCell>
        <mxCell id="M1jqkNvkKbYQRdfH7JLm-13" style="edgeStyle=orthogonalEdgeStyle;rounded=0;orthogonalLoop=1;jettySize=auto;html=1;exitX=0;exitY=1;exitDx=0;exitDy=0;entryX=1;entryY=0;entryDx=0;entryDy=0;fontSize=22;" edge="1" parent="1" source="M1jqkNvkKbYQRdfH7JLm-2" target="M1jqkNvkKbYQRdfH7JLm-3">
          <mxGeometry relative="1" as="geometry" />
        </mxCell>
        <mxCell id="M1jqkNvkKbYQRdfH7JLm-14" style="edgeStyle=orthogonalEdgeStyle;rounded=0;orthogonalLoop=1;jettySize=auto;html=1;exitX=0.5;exitY=1;exitDx=0;exitDy=0;fontSize=22;" edge="1" parent="1" source="M1jqkNvkKbYQRdfH7JLm-2">
          <mxGeometry relative="1" as="geometry">
            <mxPoint x="330" y="250" as="targetPoint" />
          </mxGeometry>
        </mxCell>
        <mxCell id="M1jqkNvkKbYQRdfH7JLm-15" style="edgeStyle=orthogonalEdgeStyle;rounded=0;orthogonalLoop=1;jettySize=auto;html=1;exitX=1;exitY=1;exitDx=0;exitDy=0;fontSize=22;" edge="1" parent="1" source="M1jqkNvkKbYQRdfH7JLm-2">
          <mxGeometry relative="1" as="geometry">
            <mxPoint x="420" y="270" as="targetPoint" />
          </mxGeometry>
        </mxCell>
        <mxCell id="M1jqkNvkKbYQRdfH7JLm-2" value="&lt;font style=&quot;font-size: 22px&quot;&gt;5&lt;/font&gt;" style="ellipse;whiteSpace=wrap;html=1;aspect=fixed;" vertex="1" parent="1">
          <mxGeometry x="290" y="150" width="80" height="80" as="geometry" />
        </mxCell>
        <mxCell id="M1jqkNvkKbYQRdfH7JLm-3" value="&lt;font style=&quot;font-size: 22px&quot;&gt;5&lt;/font&gt;" style="ellipse;whiteSpace=wrap;html=1;aspect=fixed;" vertex="1" parent="1">
          <mxGeometry x="180" y="260" width="80" height="80" as="geometry" />
        </mxCell>
        <mxCell id="M1jqkNvkKbYQRdfH7JLm-16" style="edgeStyle=orthogonalEdgeStyle;rounded=0;orthogonalLoop=1;jettySize=auto;html=1;exitX=0.5;exitY=1;exitDx=0;exitDy=0;entryX=0.8;entryY=0.075;entryDx=0;entryDy=0;entryPerimeter=0;fontSize=22;" edge="1" parent="1" source="M1jqkNvkKbYQRdfH7JLm-4" target="M1jqkNvkKbYQRdfH7JLm-6">
          <mxGeometry relative="1" as="geometry" />
        </mxCell>
        <mxCell id="M1jqkNvkKbYQRdfH7JLm-17" style="edgeStyle=orthogonalEdgeStyle;rounded=0;orthogonalLoop=1;jettySize=auto;html=1;exitX=1;exitY=0.5;exitDx=0;exitDy=0;entryX=0.4;entryY=-0.012;entryDx=0;entryDy=0;entryPerimeter=0;fontSize=22;" edge="1" parent="1" source="M1jqkNvkKbYQRdfH7JLm-4" target="M1jqkNvkKbYQRdfH7JLm-7">
          <mxGeometry relative="1" as="geometry" />
        </mxCell>
        <mxCell id="M1jqkNvkKbYQRdfH7JLm-4" value="&lt;font style=&quot;font-size: 22px&quot;&gt;5&lt;/font&gt;" style="ellipse;whiteSpace=wrap;html=1;aspect=fixed;" vertex="1" parent="1">
          <mxGeometry x="450" y="140" width="80" height="80" as="geometry" />
        </mxCell>
        <mxCell id="M1jqkNvkKbYQRdfH7JLm-5" value="&lt;font style=&quot;font-size: 22px&quot;&gt;5&lt;/font&gt;" style="ellipse;whiteSpace=wrap;html=1;aspect=fixed;" vertex="1" parent="1">
          <mxGeometry x="290" y="260" width="80" height="80" as="geometry" />
        </mxCell>
        <mxCell id="M1jqkNvkKbYQRdfH7JLm-6" value="&lt;font style=&quot;font-size: 22px&quot;&gt;5&lt;/font&gt;" style="ellipse;whiteSpace=wrap;html=1;aspect=fixed;" vertex="1" parent="1">
          <mxGeometry x="400" y="260" width="80" height="80" as="geometry" />
        </mxCell>
        <mxCell id="M1jqkNvkKbYQRdfH7JLm-7" value="&lt;font style=&quot;font-size: 22px&quot;&gt;5&lt;/font&gt;" style="ellipse;whiteSpace=wrap;html=1;aspect=fixed;" vertex="1" parent="1">
          <mxGeometry x="510" y="260" width="80" height="80" as="geometry" />
        </mxCell>
      </root>
    </mxGraphModel>
  </diagram>
</mxfile>
